<?xml version="1.0" standalone="no"?>
<!DOCTYPE svg PUBLIC "-//W3C//DTD SVG 20010904//EN"
 "http://www.w3.org/TR/2001/REC-SVG-20010904/DTD/svg10.dtd">
<svg version="1.0" xmlns="http://www.w3.org/2000/svg"
 width="512.000000pt" height="512.000000pt" viewBox="0 0 512.000000 512.000000"
 preserveAspectRatio="xMidYMid meet">

<g transform="translate(0.000000,512.000000) scale(0.100000,-0.100000)"
fill="#000000" stroke="none">
<path d="M3591 5109 c-121 -37 -200 -144 -201 -274 0 -57 -6 -81 -30 -129 -58
-115 -34 -255 59 -339 44 -40 135 -77 189 -77 49 0 109 17 150 42 25 15 53 21
115 22 62 1 92 7 122 23 180 96 212 334 63 468 -27 24 -63 49 -81 54 -25 8
-36 21 -46 48 -18 49 -80 114 -136 142 -53 27 -151 36 -204 20z m154 -163 c38
-25 56 -59 62 -120 l6 -56 41 0 c87 0 148 -55 148 -134 0 -54 -19 -89 -65
-116 -41 -26 -88 -25 -139 1 l-41 21 -36 -41 c-54 -61 -104 -75 -168 -44 -53
25 -75 66 -70 132 4 49 8 58 47 94 l42 40 -16 34 c-36 75 -9 169 57 199 38 17
98 12 132 -10z"/>
<path d="M1484 4935 c-38 -20 -58 -24 -90 -20 -143 20 -284 -90 -301 -236 -4
-30 -17 -76 -30 -102 -32 -62 -34 -155 -6 -218 53 -119 192 -185 311 -146 35
12 68 15 114 10 75 -7 122 6 185 49 54 36 89 96 107 182 8 38 23 77 34 89 58
62 70 187 26 275 -46 93 -127 141 -235 142 -51 0 -77 -6 -115 -25z m195 -156
c26 -25 31 -39 31 -76 0 -38 -5 -50 -32 -77 -18 -18 -41 -37 -52 -43 -16 -9
-17 -16 -10 -54 13 -62 7 -93 -23 -123 -37 -38 -86 -43 -141 -17 l-45 22 -21
-20 c-79 -74 -196 -29 -196 75 0 36 6 51 34 81 29 33 32 42 24 66 -14 41 -2
90 30 119 42 39 75 43 137 14 l54 -24 44 44 c39 39 49 44 90 44 37 0 51 -5 76
-31z"/>
<path d="M2893 4456 c-22 -7 -54 -23 -70 -34 -25 -18 -35 -19 -76 -10 -50 10
-131 -2 -176 -26 -21 -12 -28 -11 -59 11 -188 127 -440 -2 -446 -230 l-2 -58
-50 -23 c-27 -13 -65 -38 -83 -57 -34 -33 -70 -100 -71 -129 0 -12 -17 -15
-87 -15 -73 -1 -96 -5 -133 -25 -37 -19 -57 -23 -117 -21 -89 3 -157 -23 -209
-81 -43 -48 -60 -85 -69 -153 -4 -27 -18 -74 -32 -102 -22 -46 -25 -62 -20
-125 3 -40 7 -81 9 -92 2 -14 -7 -21 -42 -30 -62 -16 -113 -49 -151 -97 -43
-54 -58 -101 -59 -180 0 -54 5 -77 31 -129 31 -61 31 -64 15 -89 -50 -77 -76
-165 -75 -256 0 -33 91 -609 202 -1280 l202 -1220 1175 0 1175 0 202 1220
c117 710 202 1249 203 1288 0 49 -8 90 -26 144 -33 95 -28 145 21 209 41 53
50 93 41 177 -9 77 -9 97 0 175 4 40 2 79 -6 108 -17 59 -87 138 -143 159
l-42 16 0 98 c0 95 -1 100 -34 148 -69 101 -171 141 -287 112 -41 -11 -47 -10
-84 16 -58 40 -116 58 -196 60 -57 2 -79 7 -108 27 -35 24 -36 25 -17 42 11
10 29 41 41 69 18 42 22 64 18 127 -5 81 -20 119 -70 176 -67 76 -199 112
-295 80z m142 -150 c44 -19 75 -69 75 -121 0 -55 -18 -85 -71 -121 -39 -26
-45 -33 -38 -53 5 -12 12 -50 16 -84 l8 -62 40 -6 c55 -7 79 -22 105 -65 18
-29 27 -34 44 -29 11 4 42 12 68 18 83 19 155 -17 219 -110 l31 -44 43 40 c52
48 99 60 143 37 43 -22 62 -54 62 -104 0 -45 -18 -70 -80 -113 -22 -15 -23
-18 -12 -60 6 -24 14 -65 17 -90 l6 -47 69 36 c65 33 72 35 109 23 81 -24 106
-109 55 -184 l-26 -38 26 -38 c48 -68 29 -148 -44 -186 -26 -13 -33 -13 -82
10 -174 79 -372 42 -509 -94 l-59 -60 -51 55 c-176 185 -472 185 -647 0 l-52
-55 -52 55 c-175 185 -471 185 -647 0 l-51 -55 -59 60 c-136 136 -335 173
-508 94 l-52 -23 -15 23 c-22 33 -20 103 3 141 28 46 96 70 148 54 21 -7 50
-21 64 -31 l26 -18 31 38 c16 20 60 57 96 82 36 24 66 46 66 49 0 3 -38 18
-85 33 -100 33 -125 58 -125 123 0 36 6 51 35 83 32 36 34 41 24 71 -25 70 31
150 105 150 16 0 48 -10 72 -22 l44 -21 37 40 c31 33 48 42 85 48 57 9 93 -3
156 -48 87 -63 86 -63 127 -7 l37 51 -25 37 c-58 85 -23 175 74 190 36 5 58
17 94 51 l47 43 -18 40 c-44 97 4 192 103 204 57 7 102 -21 140 -86 18 -30 36
-61 41 -69 6 -10 19 1 51 42 54 71 109 96 168 77 21 -7 50 -21 64 -31 l27 -19
27 36 c53 69 111 88 180 60z m-819 -1517 c66 -17 134 -76 171 -148 l33 -63 0
-1214 0 -1214 -204 0 -204 0 -6 58 c-16 141 -178 2225 -179 2292 -1 86 20 143
72 203 80 91 185 119 317 86z m1540 -14 c99 -44 163 -134 171 -240 3 -46 -39
-324 -186 -1211 -105 -634 -191 -1157 -191 -1163 0 -8 -62 -11 -206 -11 l-206
0 5 42 c4 24 47 567 98 1208 101 1281 94 1232 169 1309 94 97 222 121 346 66z
m-2382 -282 c13 -61 86 -519 86 -539 0 -18 -9 -23 -71 -33 -40 -6 -74 -10 -76
-7 -8 8 -97 575 -91 581 7 7 84 22 120 24 21 1 28 -4 32 -26z m1648 8 c4 -4 2
-80 -4 -170 l-12 -163 -72 4 c-40 2 -76 6 -79 10 -7 6 13 316 20 329 5 7 138
-1 147 -10z m-57 -557 l21 -5 -23 -277 c-12 -152 -22 -281 -22 -286 -1 -8
-146 -5 -154 4 -2 3 7 129 19 280 13 151 23 278 23 283 1 8 106 9 136 1z
m-1329 -1036 l29 -183 -23 -7 c-13 -4 -48 -10 -77 -13 l-54 -7 -5 33 c-33 195
-55 333 -53 335 3 3 110 22 133 23 19 1 23 -12 50 -181z m1233 -125 c23 -6 23
-7 16 -102 -3 -53 -8 -97 -9 -98 -2 -2 -37 0 -79 3 l-77 7 6 76 c9 125 7 121
67 121 28 0 63 -3 76 -7z"/>
<path d="M2389 3756 c-75 -27 -145 -97 -169 -172 -9 -27 -17 -34 -38 -34 -102
-1 -232 -137 -232 -242 l0 -38 70 0 c59 0 72 3 76 18 13 43 38 80 64 95 30 18
94 22 132 8 13 -4 35 -11 49 -14 l26 -7 -5 77 c-4 60 -1 83 12 108 22 40 64
65 111 65 55 0 92 -25 126 -85 19 -34 35 -52 42 -48 7 4 26 17 43 30 52 39
107 26 127 -29 5 -15 19 -18 78 -18 l72 0 -5 43 c-6 54 -39 104 -92 142 -35
25 -52 30 -116 34 -60 3 -81 8 -107 28 -18 14 -50 31 -70 39 -48 17 -147 17
-194 0z"/>
<path d="M3177 3406 c-21 -8 -55 -26 -75 -40 -32 -22 -44 -24 -93 -19 -108 11
-211 -46 -255 -141 -13 -28 -24 -66 -24 -83 l0 -33 70 0 c58 0 72 3 76 18 14
44 31 66 61 79 48 20 66 16 122 -22 28 -19 53 -35 56 -35 4 0 15 20 26 44 10
25 34 56 51 71 27 23 39 26 73 22 44 -6 95 -52 95 -87 0 -18 7 -20 75 -20 l75
0 0 30 c0 144 -192 269 -333 216z"/>
<path d="M4559 4396 c-19 -7 -45 -19 -58 -28 -16 -11 -38 -14 -89 -10 -86 6
-154 -21 -211 -83 -39 -43 -71 -120 -71 -173 0 -14 -12 -49 -26 -78 -47 -96
-28 -221 44 -298 63 -67 199 -97 283 -62 25 10 47 12 79 6 89 -17 178 15 241
87 38 44 54 81 64 148 4 28 17 61 30 77 67 80 74 220 15 307 -69 101 -194 146
-301 107z m131 -151 c41 -21 60 -53 60 -103 0 -45 -18 -70 -80 -113 -22 -14
-23 -19 -13 -58 29 -112 -64 -186 -170 -135 -33 16 -36 16 -73 -10 -56 -38
-112 -36 -153 5 -24 24 -31 39 -31 69 0 48 16 85 46 105 20 13 22 18 12 52
-21 77 30 153 104 153 18 0 52 -11 75 -25 l43 -24 27 35 c46 61 98 78 153 49z"/>
<path d="M703 4016 c-24 -8 -58 -23 -78 -35 -29 -17 -43 -19 -80 -12 -122 23
-247 -46 -302 -167 -21 -45 -24 -65 -21 -125 2 -43 12 -88 23 -112 23 -47 92
-117 132 -134 19 -8 34 -26 46 -56 42 -100 170 -174 284 -162 138 14 238 118
258 267 5 39 16 64 35 86 46 53 63 113 58 198 -5 83 -34 144 -90 192 -72 60
-185 86 -265 60z m134 -153 c52 -24 75 -67 70 -131 -4 -56 -27 -91 -81 -119
-27 -14 -28 -17 -21 -61 11 -68 7 -101 -17 -134 -22 -31 -72 -58 -109 -58 -36
0 -88 31 -108 64 -11 17 -22 52 -26 78 -7 46 -7 46 -53 53 -35 5 -55 16 -84
45 -33 33 -38 44 -38 85 0 117 106 172 214 112 l46 -25 32 40 c51 65 110 82
175 51z"/>
</g>
</svg>
